<svg width="112" height="97" viewBox="0 0 112 97" fill="none" xmlns="http://www.w3.org/2000/svg">
<g clip-path="url(#clip0_111_173)">
<path d="M26.8651 22.4178C26.6596 16.6086 25.3987 11.1312 24.3806 8.0684C24.0549 7.08869 24.4582 6.03068 25.3828 5.4391C26.3073 4.84752 27.547 4.85427 28.4636 5.45588C28.6411 5.57234 29.056 5.78327 29.923 6.21165L30.0342 6.26655C33.133 7.79711 39.4937 10.9387 43.4028 16.7461C47.2893 16.0763 51.4776 15.7258 55.9615 15.7258C71.383 15.7258 83.3125 19.8786 91.4043 26.8579C99.4967 33.8377 103.5 43.4308 103.5 53.8619C103.5 63.7707 98.7972 72.7466 91.1823 79.4814L94.9394 82.711C97.5798 84.9807 97.6815 88.7525 95.1666 91.1355C94.7669 91.5142 94.3251 91.835 93.8542 92.0977C93.2651 93.7038 92.046 95.1284 90.2949 96.0408C86.5053 98.0154 81.6596 96.8436 79.4717 93.4235L76.2371 88.3672C70.0784 90.6988 63.2028 91.998 55.9615 91.998C51.228 91.998 46.8236 91.6074 42.7561 90.8627C42.7225 94.1276 39.7794 96.765 36.1538 96.765C35.3877 96.765 34.6521 96.6472 33.9679 96.4307C31.7574 97.2757 29.1495 97.2075 26.9103 96.0408C23.1207 94.0662 21.8223 89.693 24.0102 86.273L25.245 84.3428C17.8198 79.6947 12.8297 73.2291 10.3215 65.7794H8.42308C4.04728 65.7794 0.5 62.578 0.5 58.6289V49.0949C0.5 45.1458 4.04728 41.9444 8.42308 41.9444H10.3215C13.0089 33.9624 18.5445 27.1133 26.8651 22.4178Z" fill="#00FC28" fill-opacity="0.58"/>
<path d="M72.0282 74.1085C70.641 72.9538 70.5875 71.0351 71.9088 69.8229C73.23 68.6107 75.4257 68.564 76.8129 69.7186L88.5343 79.4748C89.9215 80.6294 89.975 82.5481 88.6537 83.7604C87.3324 84.9726 85.1368 85.0193 83.7496 83.8647L72.0282 74.1085Z" fill="#38B550"/>
<path fill-rule="evenodd" clip-rule="evenodd" d="M78.4078 68.2553L90.1292 78.0115C92.4412 79.9359 92.5303 83.1337 90.3282 85.1541C88.1261 87.1745 84.4667 87.2524 82.1547 85.328L70.4332 75.5718C68.1212 73.6474 68.0322 70.4495 70.2343 68.4292C72.4364 66.4088 76.0958 66.3309 78.4078 68.2553ZM71.9088 69.8229C70.5875 71.0351 70.641 72.9538 72.0281 74.1085L83.7496 83.8647C85.1368 85.0193 87.3324 84.9726 88.6537 83.7604C89.975 82.5482 89.9215 80.6294 88.5343 79.4748L76.8129 69.7186C75.4257 68.564 73.23 68.6107 71.9088 69.8229Z" fill="#218523"/>
<path d="M35.1875 70.7292C35.1875 69.0551 36.7405 67.6979 38.6562 67.6979C40.572 67.6979 42.125 69.0551 42.125 70.7292V84.875C42.125 86.5491 40.572 87.9063 38.6562 87.9063C36.7405 87.9063 35.1875 86.5491 35.1875 84.875V70.7292Z" fill="#38B550"/>
<path fill-rule="evenodd" clip-rule="evenodd" d="M44.4375 70.7292V84.875C44.4375 87.6652 41.8491 89.9271 38.6562 89.9271C35.4634 89.9271 32.875 87.6652 32.875 84.875V70.7292C32.875 67.939 35.4634 65.6771 38.6562 65.6771C41.8491 65.6771 44.4375 67.939 44.4375 70.7292ZM38.6562 67.6979C36.7405 67.6979 35.1875 69.055 35.1875 70.7292V84.875C35.1875 86.5491 36.7405 87.9062 38.6562 87.9062C40.572 87.9062 42.125 86.5491 42.125 84.875V70.7292C42.125 69.055 40.572 67.6979 38.6562 67.6979Z" fill="#218523"/>
<path fill-rule="evenodd" clip-rule="evenodd" d="M43.8008 24.368C40.861 19.1212 35.0476 16.3399 32.09 14.9249C31.4026 14.596 30.8694 14.3409 30.5625 14.1458C31.5756 17.097 32.8255 22.4615 32.8601 28.0242C24.919 32.0064 19.8839 38.1883 17.7956 45.4688H14.375C11.8207 45.4688 9.75 47.2783 9.75 49.5104V57.5938C9.75 59.8259 11.8207 61.6354 14.375 61.6354H17.7956C19.8259 68.7137 24.6417 74.7536 32.2053 78.7432L30.0259 82.042C28.7487 83.9751 29.5066 86.4469 31.7188 87.563C33.9309 88.6791 36.7595 88.0167 38.0366 86.0836L40.7202 82.0217C45.1948 83.2139 50.2894 83.8646 56 83.8646C62.7742 83.8646 69.1483 82.5434 74.7124 80.217L78.5884 86.0837C79.8655 88.0168 82.6941 88.6791 84.9062 87.563C87.1183 86.4469 87.8763 83.9751 86.5991 82.042L82.5474 75.9094C90.393 70.3676 95.3125 62.4028 95.3125 53.5521C95.3125 36.811 82.0798 23.2396 56 23.2396C51.5607 23.2396 47.4937 23.6328 43.8008 24.368Z" fill="#55CF6C"/>
<path fill-rule="evenodd" clip-rule="evenodd" d="M33.3914 15.5562C36.5263 17.1137 41.2475 19.8109 43.8008 24.368C47.4937 23.6328 51.5607 23.2396 56 23.2396C82.0798 23.2396 95.3125 36.811 95.3125 53.5521C95.3125 62.4028 90.393 70.3676 82.5474 75.9094L86.5991 82.042C87.8763 83.9751 87.1183 86.4469 84.9062 87.563C82.6941 88.6791 79.8655 88.0168 78.5884 86.0837L74.7124 80.217C69.1483 82.5434 62.7742 83.8646 56 83.8646C50.2894 83.8646 45.1948 83.2139 40.7202 82.0217L38.0366 86.0836C36.7595 88.0167 33.9309 88.6791 31.7188 87.563C29.5066 86.4469 28.7487 83.9751 30.0259 82.042L32.2053 78.7432C24.6417 74.7536 19.8259 68.7137 17.7956 61.6354H14.375C11.8207 61.6354 9.75 59.8259 9.75 57.5938V49.5104C9.75 47.2783 11.8207 45.4688 14.375 45.4688H17.7956C19.8839 38.1883 24.919 32.0064 32.8601 28.0242C32.8344 23.9021 32.1415 19.8888 31.372 16.8857C31.3219 16.6902 31.2715 16.4988 31.2209 16.3121C31 15.4967 30.776 14.7677 30.5625 14.1458C30.8694 14.3409 31.4026 14.596 32.09 14.9249C32.4788 15.1109 32.9169 15.3205 33.3914 15.5562ZM30.523 26.8925C30.343 21.9672 29.239 17.3233 28.3475 14.7265C28.0624 13.8959 28.4155 12.9989 29.225 12.4973C30.0346 11.9957 31.1201 12.0014 31.9226 12.5115C32.078 12.6103 32.4414 12.7891 33.2005 13.1523C33.2325 13.1676 33.265 13.1831 33.2978 13.1988C36.0112 14.4965 41.5806 17.1601 45.0035 22.0839C48.4065 21.5159 52.0738 21.2188 56 21.2188C69.5032 21.2188 79.9487 24.7397 87.0339 30.657C94.1197 36.5748 97.625 44.7082 97.625 53.5521C97.625 62.4967 92.9571 70.5448 85.5137 76.3575L88.6018 81.0316C90.5175 83.9312 89.3806 87.639 86.0625 89.3131C82.7443 90.9872 78.5014 89.9937 76.5857 87.0941L73.7534 82.8071C68.3608 84.784 62.3405 85.8854 56 85.8854C50.8198 85.8854 46.0897 85.3681 41.8232 84.394L40.0393 87.0941C38.1236 89.9937 33.8807 90.9872 30.5625 89.3131C27.2443 87.639 26.1075 83.9312 28.0232 81.0316L29.1044 79.395C22.6029 75.4543 18.2334 69.9725 16.0373 63.6563H14.375C10.5435 63.6563 7.4375 60.942 7.4375 57.5938V49.5104C7.4375 46.1622 10.5435 43.4479 14.375 43.4479H16.0373C18.3903 36.6805 23.2374 30.8735 30.523 26.8925Z" fill="#218523"/>
<path fill-rule="evenodd" clip-rule="evenodd" d="M38.8157 18.8384C39.8276 19.8637 40.7489 21.0274 41.4883 22.3471C41.7631 22.2924 42.0399 22.2396 42.3188 22.1888C41.2715 20.8928 40.0594 19.7845 38.8157 18.8384ZM84.7495 31.5615C90.2376 36.8949 93 43.8822 93 51.5313C93 60.382 88.0805 68.3468 80.2349 73.8885L84.2866 80.0212C85.5638 81.9543 84.8059 84.4261 82.5938 85.5422C81.2421 86.2242 79.6602 86.2421 78.3428 85.7119L78.5884 86.0837C79.8655 88.0168 82.6941 88.6791 84.9062 87.563C87.1184 86.4469 87.8763 83.9751 86.5991 82.042L82.5474 75.9094C90.393 70.3676 95.3125 62.4028 95.3125 53.5521C95.3125 44.8947 91.7737 37.085 84.7495 31.5615ZM73.9422 80.5306L72.3999 78.1962C66.8358 80.5226 60.4618 81.8438 53.6875 81.8438C47.977 81.8438 42.8823 81.1931 38.4078 80.0009L35.7241 84.0628C34.5245 85.8785 31.9562 86.5731 29.8156 85.7259C30.2 86.4717 30.8463 87.1228 31.7188 87.563C33.9309 88.6791 36.7595 88.0167 38.0366 86.0836L40.7203 82.0217C45.1948 83.2139 50.2895 83.8646 56 83.8646C62.4637 83.8646 68.5631 82.6618 73.9422 80.5306ZM29.5751 77.2033L29.8928 76.7224C28.0839 75.7682 26.4321 74.6968 24.938 73.5219C26.3129 74.858 27.8587 76.0903 29.5751 77.2033ZM16.1493 61.6354C15.9013 60.9721 15.6792 60.2982 15.4831 59.6146H12.0625C11.3839 59.6146 10.7394 59.4869 10.1588 59.2574C10.8845 60.6597 12.4993 61.6354 14.375 61.6354H16.1493Z" fill="#38B550"/>
<path fill-rule="evenodd" clip-rule="evenodd" d="M57.4752 29.1662C54.448 28.9551 51.3254 29.1551 47.1311 29.7541C45.8707 29.9341 44.6819 29.1871 44.476 28.0857C44.27 26.9842 45.1248 25.9454 46.3852 25.7654C50.7737 25.1386 54.3021 24.8904 57.8432 25.1374C61.3842 25.3843 64.8229 26.1185 69.0421 27.3456C70.2539 27.698 70.9093 28.8422 70.506 29.9012C70.1027 30.9601 68.7934 31.5329 67.5816 31.1805C63.5491 30.0077 60.5024 29.3774 57.4752 29.1662Z" fill="#38B550"/>
<path fill-rule="evenodd" clip-rule="evenodd" d="M50.1621 66.6714C64.3395 66.2551 75.6562 57.8264 75.6562 47.4896C75.6562 36.8869 66.7047 28.2917 49.0625 28.2917C31.4203 28.2917 22.4688 36.8869 22.4688 47.4896C22.4688 54.1122 25.9611 59.9516 32.8823 63.4024C34.2982 61.127 37.0019 59.6146 40.9688 59.6146C46.6272 59.6146 49.7153 62.6918 50.1621 66.6714Z" fill="#71EB88"/>
<path d="M72.1875 48.5C72.1875 55.1965 65.9755 60.625 58.3125 60.625C49.1079 60.625 44.4375 55.1965 44.4375 48.5C44.4375 41.8035 49.1079 36.375 58.3125 36.375C67.5171 36.375 72.1875 41.8035 72.1875 48.5Z" fill="#B1FFC0"/>
<path d="M42.125 37.8906C42.125 40.4018 39.2778 42.4375 35.7656 42.4375C31.5468 42.4375 29.4062 40.4018 29.4062 37.8906C29.4062 35.3795 31.5468 33.3438 35.7656 33.3438C39.9844 33.3438 42.125 35.3795 42.125 37.8906Z" fill="#B1FFC0"/>
<path fill-rule="evenodd" clip-rule="evenodd" d="M35.1275 31.0017C35.3305 31.5308 35.0042 32.1035 34.3988 32.2809C32.0342 32.9737 26.1333 36.4558 23.5852 44.7212C23.4191 45.26 22.7845 45.5791 22.168 45.434C21.5514 45.2888 21.1862 44.7343 21.3523 44.1955C24.0899 35.3156 30.5223 31.2853 33.6637 30.3649C34.2691 30.1875 34.9245 30.4726 35.1275 31.0017Z" fill="#71FA8B"/>
<path fill-rule="evenodd" clip-rule="evenodd" d="M99.8441 34.0473C101.859 35.0427 103.595 36.972 104.339 40.2557C105.102 43.6261 104.547 46.2746 103.252 48.1523C104.128 50.833 103.529 53.1 102.263 54.79C100.938 56.5578 98.8936 57.6775 97.1544 57.9782C96.528 58.0865 95.9197 57.7306 95.7957 57.1831C95.6718 56.6357 96.0791 56.1041 96.7056 55.9958C97.8021 55.8062 99.3253 55.0214 100.328 53.683C101.024 52.7547 101.476 51.5493 101.324 50.0702C100.901 50.3601 100.45 50.6066 99.9794 50.8091C96.8442 52.1569 92.6957 51.4312 91.4382 48.2972C90.945 47.0682 91.3381 45.8687 92.131 44.965C92.9138 44.0726 94.1189 43.4147 95.452 43.1449C96.8005 42.8719 98.3268 42.9874 99.7233 43.7036C100.584 44.1449 101.355 44.7933 101.995 45.6603C102.435 44.3745 102.54 42.7217 102.07 40.648C101.433 37.834 100.032 36.4618 98.706 35.8065C97.333 35.1281 95.8768 35.1361 95.0287 35.3313C94.4112 35.4733 93.7788 35.151 93.6162 34.6114C93.4536 34.0718 93.8224 33.5191 94.4399 33.377C95.7875 33.067 97.8761 33.075 99.8441 34.0473ZM100.678 47.8201C100.087 46.557 99.3083 45.8339 98.5528 45.4464C97.7198 45.0192 96.809 44.9445 95.9738 45.1136C95.1233 45.2857 94.3984 45.7018 93.9662 46.1945C93.5441 46.6757 93.4372 47.1721 93.6204 47.6286C94.2759 49.2621 96.6446 49.9906 98.9586 48.9958C99.5601 48.7372 100.156 48.3505 100.678 47.8201Z" fill="#218523"/>
<path fill-rule="evenodd" clip-rule="evenodd" d="M29.8852 39.5978C30.4027 39.2709 31.1255 39.3725 31.4996 39.8248C32.0025 40.4327 32.9863 41.1609 34.2365 41.3683C35.4102 41.5631 37.0428 41.3358 39.0127 39.687C39.4739 39.301 40.2058 39.3148 40.6475 39.7178C41.0893 40.1208 41.0735 40.7604 40.6123 41.1464C38.2096 43.1574 35.8478 43.6926 33.8051 43.3537C31.8387 43.0274 30.3839 41.9256 29.6254 41.0086C29.2514 40.5563 29.3676 39.9247 29.8852 39.5978Z" fill="#218523"/>
<path fill-rule="evenodd" clip-rule="evenodd" d="M34.3699 17.473C34.8215 17.0784 35.5535 17.0784 36.0051 17.473L36.013 17.48C36.8769 18.2349 38.054 19.2635 39.1619 20.3608C40.2604 21.4487 41.355 22.6657 42.0029 23.7981C42.2885 24.2972 42.057 24.9042 41.4858 25.1537C40.9147 25.4033 40.2201 25.201 39.9346 24.7019C39.4263 23.8135 38.4975 22.7571 37.4279 21.6978C36.3712 20.6513 35.2396 19.662 34.3699 18.902C33.9184 18.5074 33.9184 17.8676 34.3699 17.473Z" fill="#71FA8B"/>
<path fill-rule="evenodd" clip-rule="evenodd" d="M41.6841 62.8624C42.1858 63.2077 42.2722 63.843 41.8771 64.2814C39.9292 66.4429 37.9244 67.5793 35.9321 68.1524C33.9992 68.7085 32.1513 68.7084 30.618 68.7083C30.5995 68.7083 30.581 68.7083 30.5625 68.7083C29.9239 68.7083 29.4062 68.2559 29.4062 67.6979C29.4062 67.1399 29.9239 66.6875 30.5625 66.6875C32.1403 66.6875 33.653 66.6806 35.2089 66.233C36.7287 65.7957 38.3661 64.9112 40.0604 63.0311C40.4554 62.5927 41.1824 62.5172 41.6841 62.8624Z" fill="#218523"/>
<path d="M77.9688 66.1823C77.9688 67.0193 77.1922 67.6979 76.2344 67.6979C75.2765 67.6979 74.5 67.0193 74.5 66.1823C74.5 65.3452 75.2765 64.6667 76.2344 64.6667C77.1922 64.6667 77.9688 65.3452 77.9688 66.1823Z" fill="#38B550"/>
<path d="M83.75 64.1615C83.75 64.9985 82.9735 65.6771 82.0156 65.6771C81.0578 65.6771 80.2812 64.9985 80.2812 64.1615C80.2812 63.3244 81.0578 62.6458 82.0156 62.6458C82.9735 62.6458 83.75 63.3244 83.75 64.1615Z" fill="#38B550"/>
<path d="M79.125 61.6354C79.125 62.1935 78.6073 62.6458 77.9688 62.6458C77.3302 62.6458 76.8125 62.1935 76.8125 61.6354C76.8125 61.0774 77.3302 60.625 77.9688 60.625C78.6073 60.625 79.125 61.0774 79.125 61.6354Z" fill="#38B550"/>
<path d="M87.2188 59.6146C87.2188 60.1726 86.7011 60.625 86.0625 60.625C85.4239 60.625 84.9062 60.1726 84.9062 59.6146C84.9062 59.0565 85.4239 58.6042 86.0625 58.6042C86.7011 58.6042 87.2188 59.0565 87.2188 59.6146Z" fill="#38B550"/>
<path d="M89.5312 54.5625C89.5312 55.1205 89.0136 55.5729 88.375 55.5729C87.7364 55.5729 87.2188 55.1205 87.2188 54.5625C87.2188 54.0045 87.7364 53.5521 88.375 53.5521C89.0136 53.5521 89.5312 54.0045 89.5312 54.5625Z" fill="#38B550"/>
<path d="M88.375 48.5C88.375 49.058 87.8573 49.5104 87.2188 49.5104C86.5802 49.5104 86.0625 49.058 86.0625 48.5C86.0625 47.942 86.5802 47.4896 87.2188 47.4896C87.8573 47.4896 88.375 47.942 88.375 48.5Z" fill="#38B550"/>
<path d="M86.0625 56.5833C86.0625 57.1414 85.5448 57.5937 84.9062 57.5937C84.2677 57.5937 83.75 57.1414 83.75 56.5833C83.75 56.0253 84.2677 55.5729 84.9062 55.5729C85.5448 55.5729 86.0625 56.0253 86.0625 56.5833Z" fill="#38B550"/>
<path d="M80.2812 57.5937C80.2812 58.1518 79.7636 58.6042 79.125 58.6042C78.4864 58.6042 77.9688 58.1518 77.9688 57.5937C77.9688 57.0357 78.4864 56.5833 79.125 56.5833C79.7636 56.5833 80.2812 57.0357 80.2812 57.5937Z" fill="#38B550"/>
<path d="M87.2188 63.6562C87.2188 64.2143 86.7011 64.6667 86.0625 64.6667C85.4239 64.6667 84.9062 64.2143 84.9062 63.6562C84.9062 63.0982 85.4239 62.6458 86.0625 62.6458C86.7011 62.6458 87.2188 63.0982 87.2188 63.6562Z" fill="#38B550"/>
<path d="M86.0625 67.6979C86.0625 68.256 85.5448 68.7083 84.9062 68.7083C84.2677 68.7083 83.75 68.256 83.75 67.6979C83.75 67.1399 84.2677 66.6875 84.9062 66.6875C85.5448 66.6875 86.0625 67.1399 86.0625 67.6979Z" fill="#38B550"/>
<path d="M80.2812 70.7292C80.2812 71.2872 79.7636 71.7396 79.125 71.7396C78.4864 71.7396 77.9688 71.2872 77.9688 70.7292C77.9688 70.1711 78.4864 69.7188 79.125 69.7188C79.7636 69.7188 80.2812 70.1711 80.2812 70.7292Z" fill="#38B550"/>
<path d="M79.125 74.7708C79.125 75.3289 78.6073 75.7812 77.9688 75.7812C77.3302 75.7812 76.8125 75.3289 76.8125 74.7708C76.8125 74.2128 77.3302 73.7604 77.9688 73.7604C78.6073 73.7604 79.125 74.2128 79.125 74.7708Z" fill="#38B550"/>
<path d="M72.1875 74.7708C72.1875 75.3289 71.6698 75.7812 71.0312 75.7812C70.3927 75.7812 69.875 75.3289 69.875 74.7708C69.875 74.2128 70.3927 73.7604 71.0312 73.7604C71.6698 73.7604 72.1875 74.2128 72.1875 74.7708Z" fill="#38B550"/>
<path d="M67.5625 71.7396C67.5625 72.2976 67.0448 72.75 66.4062 72.75C65.7677 72.75 65.25 72.2976 65.25 71.7396C65.25 71.1815 65.7677 70.7292 66.4062 70.7292C67.0448 70.7292 67.5625 71.1815 67.5625 71.7396Z" fill="#38B550"/>
<path d="M76.8125 71.7396C76.8125 72.2976 76.2948 72.75 75.6562 72.75C75.0177 72.75 74.5 72.2976 74.5 71.7396C74.5 71.1815 75.0177 70.7292 75.6562 70.7292C76.2948 70.7292 76.8125 71.1815 76.8125 71.7396Z" fill="#38B550"/>
<path d="M71.0312 67.6979C71.0312 68.256 70.5136 68.7083 69.875 68.7083C69.2364 68.7083 68.7188 68.256 68.7188 67.6979C68.7188 67.1399 69.2364 66.6875 69.875 66.6875C70.5136 66.6875 71.0312 67.1399 71.0312 67.6979Z" fill="#38B550"/>
<path d="M93 57.0885C93 57.9256 92.2235 58.6042 91.2656 58.6042C90.3078 58.6042 89.5312 57.9256 89.5312 57.0885C89.5312 56.2515 90.3078 55.5729 91.2656 55.5729C92.2235 55.5729 93 56.2515 93 57.0885Z" fill="#38B550"/>
<path fill-rule="evenodd" clip-rule="evenodd" d="M54.2136 41.8154C55.4627 41.1332 56.9847 40.922 58.3125 40.922C59.6089 40.922 60.7118 41.0629 61.7027 41.4093C62.7076 41.7605 63.4767 42.281 64.1639 42.8815C64.8412 43.4734 64.8412 44.433 64.1639 45.0249C63.4866 45.6168 62.3884 45.6168 61.7111 45.0249C61.2421 44.615 60.8549 44.3777 60.4145 44.2237C59.9601 44.0649 59.3286 43.9532 58.3125 43.9532C57.3278 43.9532 56.5373 44.1209 56.052 44.3859C55.6723 44.5933 55.4219 44.8746 55.4219 45.4688C55.4219 46.0631 55.6723 46.3444 56.052 46.5517C56.5373 46.8168 57.3278 46.9845 58.3125 46.9845C59.6403 46.9845 61.1623 47.1957 62.4114 47.8779C63.7661 48.6178 64.6719 49.8521 64.6719 51.5313C64.6719 53.2105 63.7661 54.4449 62.4114 55.1847C61.1623 55.867 59.6403 56.0782 58.3125 56.0782C55.564 56.0782 53.5287 55.1721 52.3912 54.0539C51.7549 53.4283 51.8193 52.4703 52.5353 51.9142C53.2512 51.358 54.3474 51.4144 54.9838 52.04C55.388 52.4374 56.436 53.047 58.3125 53.047C59.2972 53.047 60.0877 52.8793 60.573 52.6142C60.9527 52.4069 61.2031 52.1256 61.2031 51.5313C61.2031 50.9371 60.9527 50.6558 60.573 50.4484C60.0877 50.1834 59.2972 50.0157 58.3125 50.0157C56.9847 50.0157 55.4627 49.8045 54.2136 49.1222C52.859 48.3824 51.9531 47.148 51.9531 45.4688C51.9531 43.7896 52.859 42.5553 54.2136 41.8154Z" fill="#218523"/>
<path fill-rule="evenodd" clip-rule="evenodd" d="M58.3125 38.901C59.2704 38.901 60.0469 39.5796 60.0469 40.4167V42.4375C60.0469 43.2745 59.2704 43.9531 58.3125 43.9531C57.3546 43.9531 56.5781 43.2745 56.5781 42.4375V40.4167C56.5781 39.5796 57.3546 38.901 58.3125 38.901Z" fill="#218523"/>
<path fill-rule="evenodd" clip-rule="evenodd" d="M58.3125 53.0468C59.2704 53.0468 60.0469 53.7253 60.0469 54.5624V56.5832C60.0469 57.4203 59.2704 58.0989 58.3125 58.0989C57.3546 58.0989 56.5781 57.4203 56.5781 56.5832V54.5624C56.5781 53.7253 57.3546 53.0468 58.3125 53.0468Z" fill="#218523"/>
</g>
<defs>
<clipPath id="clip0_111_173">
<rect width="111" height="97" fill="white" transform="translate(0.5)"/>
</clipPath>
</defs>
</svg>
