<svg width="33" height="31" viewBox="0 0 33 31" fill="none" xmlns="http://www.w3.org/2000/svg">
<path d="M20.5234 26.8511C21.6979 27.0496 22.9055 27.0496 24.08 26.8511C25.9678 26.5321 27.4884 25.3166 28.0122 23.7079L28.1233 23.3667C28.2388 23.012 28.2973 22.6452 28.2973 22.2766C28.2973 20.6511 26.7815 19.3333 24.9117 19.3333H19.6917C17.8219 19.3333 16.3061 20.6511 16.3061 22.2766C16.3061 22.6452 16.3646 23.012 16.4801 23.3667L16.5912 23.7079C17.115 25.3166 18.6356 26.5321 20.5234 26.8511ZM20.5234 26.8511C12.3649 25.4014 5.98171 19.2797 4.47004 11.4554M4.47004 11.4554C4.26308 10.329 4.26308 9.17098 4.47004 8.04457C4.8027 6.23409 6.07013 4.77577 7.74753 4.27347L8.10333 4.16692C8.47316 4.05617 8.85568 4 9.24004 4C10.935 4 12.309 5.4537 12.309 7.24691L12.309 12.2531C12.309 14.0463 10.935 15.5 9.24004 15.5C8.85567 15.5 8.47316 15.4438 8.10332 15.3331L7.74753 15.2265C6.07013 14.7242 4.8027 13.2659 4.47004 11.4554Z" stroke="#FF5C00" stroke-width="2"/>
</svg>
