<svg width="32" height="38" viewBox="0 0 32 38" fill="none" xmlns="http://www.w3.org/2000/svg">
<path d="M16 8.14294C14.5616 8.14294 13.1555 8.54092 11.9595 9.28655C10.7635 10.0322 9.83133 11.092 9.28088 12.3319C8.73042 13.5719 8.5864 14.9362 8.86702 16.2526C9.14764 17.5689 9.8403 18.778 10.8574 19.727C11.8745 20.676 13.1704 21.3223 14.5812 21.5841C15.9919 21.8459 17.4542 21.7116 18.7832 21.198C20.1121 20.6844 21.2479 19.8146 22.0471 18.6987C22.8462 17.5828 23.2727 16.2708 23.2727 14.9287C23.2727 13.129 22.5065 11.403 21.1426 10.1304C19.7787 8.85787 17.9288 8.14294 16 8.14294ZM16 19.0002C15.137 19.0002 14.2933 18.7614 13.5757 18.314C12.8581 17.8666 12.2988 17.2308 11.9685 16.4868C11.6383 15.7428 11.5518 14.9242 11.7202 14.1344C11.8886 13.3446 12.3042 12.6192 12.9144 12.0498C13.5247 11.4804 14.3022 11.0926 15.1487 10.9355C15.9952 10.7784 16.8725 10.859 17.6699 11.1672C18.4672 11.4753 19.1488 11.9972 19.6282 12.6667C20.1077 13.3363 20.3636 14.1235 20.3636 14.9287C20.3636 16.0085 19.9039 17.0441 19.0856 17.8077C18.2672 18.5712 17.1573 19.0002 16 19.0002ZM16 0C11.758 0.00449004 7.69115 1.57878 4.69161 4.37748C1.69207 7.17619 0.00481224 10.9708 0 14.9287C0 20.2556 2.63818 25.9013 7.63636 31.257C9.88222 33.6771 12.4099 35.8563 15.1727 37.7544C15.4173 37.9142 15.7087 38 16.0073 38C16.3059 38 16.5973 37.9142 16.8418 37.7544C19.5995 35.8555 22.1223 33.6763 24.3636 31.257C29.3545 25.9013 32 20.2556 32 14.9287C31.9952 10.9708 30.3079 7.17619 27.3084 4.37748C24.3089 1.57878 20.242 0.00449004 16 0ZM16 34.9468C12.9945 32.7414 2.90909 24.6409 2.90909 14.9287C2.90909 11.6893 4.28831 8.58248 6.74333 6.29183C9.19835 4.00118 12.5281 2.71431 16 2.71431C19.4719 2.71431 22.8016 4.00118 25.2567 6.29183C27.7117 8.58248 29.0909 11.6893 29.0909 14.9287C29.0909 24.6375 19.0055 32.7414 16 34.9468Z" fill="#FF5C00"/>
</svg>
