<svg width="43" height="39" viewBox="0 0 43 39" fill="none" xmlns="http://www.w3.org/2000/svg">
<path fill-rule="evenodd" clip-rule="evenodd" d="M4.9929 9.33846C4.43018 10.3635 4.43018 11.7052 4.43018 14.3888V24.6111C4.43018 27.2946 4.43018 28.6364 4.9929 29.6614C5.48788 30.563 6.27771 31.2961 7.24917 31.7555C8.35357 32.2777 9.79932 32.2777 12.6908 32.2777H30.5889C33.4804 32.2777 34.9261 32.2777 36.0305 31.7555C37.002 31.2961 37.7918 30.563 38.2868 29.6614C38.8495 28.6364 38.8495 27.2946 38.8495 24.6111V14.3888C38.8495 11.7052 38.8495 10.3635 38.2868 9.33846C37.7918 8.43685 37.002 7.70382 36.0305 7.24443C34.9261 6.72217 33.4804 6.72217 30.5889 6.72217H12.6908C9.79932 6.72217 8.35357 6.72217 7.24917 7.24443C6.27771 7.70382 5.48788 8.43685 4.9929 9.33846ZM14.0085 13.3912C13.2248 12.8922 12.1535 13.0773 11.6159 13.8047C11.0782 14.5322 11.2777 15.5264 12.0615 16.0254L18.7192 20.2642C20.4792 21.3847 22.8005 21.3847 24.5604 20.2642L31.2182 16.0254C32.002 15.5264 32.2015 14.5322 31.6638 13.8047C31.1262 13.0773 30.0549 12.8922 29.2712 13.3912L22.6134 17.63C22.0267 18.0035 21.253 18.0035 20.6663 17.63L14.0085 13.3912Z" stroke="#FF5C00" stroke-width="2"/>
</svg>
