<svg width="33" height="34" viewBox="0 0 33 34" fill="none" xmlns="http://www.w3.org/2000/svg">
<path fill-rule="evenodd" clip-rule="evenodd" d="M9.60632 12.0696H23.6707C24.6364 12.0696 25.4696 12.0695 26.1558 12.1184C26.8801 12.17 27.6004 12.2839 28.2936 12.5918C29.3278 13.0512 30.1686 13.7843 30.6955 14.6859C31.0487 15.2902 31.1793 15.9183 31.2385 16.5497C31.2946 17.148 31.2945 17.8745 31.2945 18.7164V26.1869C31.2945 27.0288 31.2946 27.7551 31.2385 28.3533C31.1793 28.9848 31.0487 29.6128 30.6955 30.2172C30.1686 31.1188 29.3278 31.8518 28.2936 32.3112C27.6004 32.6191 26.8801 32.7331 26.1558 32.7846C25.4696 32.8335 24.6364 32.8335 23.6707 32.8335H9.60631C8.64058 32.8335 7.80746 32.8335 7.12125 32.7846C6.39698 32.7331 5.6766 32.6191 4.98341 32.3112C3.94928 31.8518 3.1085 31.1188 2.58158 30.2172C2.22838 29.6128 2.09773 28.9848 2.03855 28.3533C1.98249 27.7551 1.98252 27.0287 1.98255 26.1867V18.7163C1.98252 17.8744 1.98249 17.148 2.03855 16.5497C2.09773 15.9183 2.22838 15.2902 2.58158 14.6859C3.1085 13.7843 3.94928 13.0512 4.98341 12.5918C5.6766 12.2839 6.39698 12.17 7.12125 12.1184C7.80743 12.0695 8.64064 12.0696 9.60632 12.0696ZM16.6385 21.6529C15.6267 21.6529 14.8065 22.368 14.8065 23.2501V24.8474C14.8065 25.7295 15.6267 26.4446 16.6385 26.4446C17.6503 26.4446 18.4705 25.7295 18.4705 24.8474V23.2501C18.4705 22.368 17.6503 21.6529 16.6385 21.6529Z" stroke="#FF5C00" stroke-width="2"/>
<path d="M10.3105 7.2778C10.3105 4.42599 13.0105 1.88892 16.6385 1.88892C20.2666 1.88892 22.9665 4.42599 22.9665 7.2778V11.0695H21.3025V7.2778C21.3025 4.83689 19.0812 3.08336 16.6385 3.08336C14.1959 3.08336 11.9745 4.83689 11.9745 7.2778V11.0695H10.3105V7.2778Z" stroke="#FF5C00" stroke-width="2"/>
</svg>
